<svg width="21" height="20" viewBox="0 0 21 20" fill="none" xmlns="http://www.w3.org/2000/svg">
<g clip-path="url(#clip0_14_3543)">
<path d="M4.65404 12.0863L3.92306 14.6852L1.25135 14.739C0.452895 13.3286 0 11.7149 0 10C0 8.34179 0.423445 6.77804 1.17403 5.40112H1.17461L3.55318 5.81644L4.59514 8.06815C4.37706 8.67366 4.2582 9.32366 4.2582 10C4.25828 10.7341 4.3979 11.4374 4.65404 12.0863Z" fill="#FBBB00"/>
<path d="M20.8167 8.1319C20.9372 8.73682 21.0001 9.36155 21.0001 10C21.0001 10.716 20.9211 11.4143 20.7705 12.088C20.2594 14.3803 18.9238 16.3819 17.0736 17.7984L17.073 17.7978L14.0771 17.6522L13.6531 15.1314C14.8808 14.4456 15.8402 13.3726 16.3456 12.088H10.731V8.1319H20.8167Z" fill="#518EF8"/>
<path d="M17.073 17.7978L17.0736 17.7984C15.2742 19.1758 12.9884 20 10.5001 20C6.50146 20 3.02494 17.8715 1.25146 14.739L4.65416 12.0863C5.54088 14.3401 7.82377 15.9445 10.5001 15.9445C11.6505 15.9445 12.7282 15.6484 13.653 15.1313L17.073 17.7978Z" fill="#28B446"/>
<path d="M17.2022 2.30219L13.8006 4.95437C12.8435 4.38461 11.7121 4.05547 10.5 4.05547C7.76311 4.05547 5.43752 5.73348 4.59523 8.06812L1.17465 5.40109H1.17407C2.92158 2.1923 6.44196 0 10.5 0C13.0477 0 15.3837 0.864297 17.2022 2.30219Z" fill="#F14336"/>
</g>
<defs>
<clipPath id="clip0_14_3543">
<rect width="21" height="20" fill="white"/>
</clipPath>
</defs>
</svg>
